<?xml version="1.0" encoding="UTF-8"?>
<!DOCTYPE svg PUBLIC "-//W3C//DTD SVG 1.1//EN" "http://www.w3.org/Graphics/SVG/1.1/DTD/svg11.dtd">
<!-- Creator: CorelDRAW 2020 (64-Bit) -->
<svg xmlns="http://www.w3.org/2000/svg" xml:space="preserve" width="55.0332mm" height="55.0332mm" version="1.1" style="shape-rendering:geometricPrecision; text-rendering:geometricPrecision; image-rendering:optimizeQuality; fill-rule:evenodd; clip-rule:evenodd"
viewBox="0 0 5503.32 5503.32"
 xmlns:xlink="http://www.w3.org/1999/xlink"
 xmlns:xodm="http://www.corel.com/coreldraw/odm/2003">
 <defs>
  <style type="text/css">
   <![CDATA[
    .str1 {stroke:#332C2B;stroke-width:50;stroke-miterlimit:22.9256}
    .str0 {stroke:#332C2B;stroke-width:25;stroke-miterlimit:22.9256}
    .fil4 {fill:none}
    .fil3 {fill:#FBCB64}
    .fil2 {fill:#F1A950}
    .fil1 {fill:#6D8D42}
    .fil0 {fill:#496A3D}
   ]]>
  </style>
 </defs>
 <g id="图层_x0020_1">
  <metadata id="CorelCorpID_0Corel-Layer"/>
  <path class="fil0 str0" d="M4511.58 722.14c-629.43,656.4 -1020.37,1061.71 -1172.81,1215.95 -67.01,-67.16 -131.96,-110.46 -194.83,-129.91 414.37,-662.25 676.98,-1210.6 787.82,-1645.05 101.79,98.13 152.68,147.2 152.68,147.2 -119.1,360.72 -297.55,752.04 -535.36,1173.98 547.61,-598.8 821.41,-898.19 821.41,-898.19 94.06,90.68 141.09,136.02 141.09,136.02z"/>
  <path class="fil0 str0" d="M4608.01 815.12c-618.67,666.76 -1010.96,1073.86 -1156.11,1235.11 69.52,64.49 115.39,128.02 137.59,190.59 634.66,-449.86 1163.98,-741.07 1587.97,-873.6 -101.79,-98.14 -152.68,-147.21 -152.68,-147.21 -350.75,137.38 -728.91,336.16 -1134.51,596.32 565.64,-581.4 848.46,-872.11 848.46,-872.11 -94.06,-90.68 -130.72,-129.1 -130.72,-129.1z"/>
  <g>
   <path class="fil1" d="M3438.07 1832.88c728.27,-755.06 1072.38,-1111.82 1072.38,-1111.82 67.21,64.8 106.27,91.76 106.27,91.76 -724.82,763.17 -1072.67,1129.42 -1072.67,1129.42l-105.98 -109.36zm-1.77 1.88c70.76,73.03 106.15,109.54 106.15,109.54 -13.8,-26.96 -49.18,-63.47 -106.15,-109.54z"/>
  </g>
  <path class="fil2 str1" d="M473.68 5126.73c408.85,-445.33 581.81,-1240.25 518.92,-2384.77 12.52,-328.84 132.05,-691.64 422.44,-936.22 154.79,1351.23 910.22,2077.78 2307.09,2156.64 -256.57,328.96 -577.08,450.29 -904.31,485.06 -1146.16,14.79 -1927.53,241.21 -2344.14,679.29z"/>
  <path class="fil3 str1" d="M1412.82 1807.7c111.46,1421.02 880.75,2139.86 2307.9,2156.53 583.2,-754.48 654.69,-1432.13 214.48,-2032.95 -155.83,-139.73 -325.37,-298.17 -508.64,-475.28 -629.25,-398.5 -1300.5,-281.26 -2013.74,351.7z"/>
  <line class="fil4 str0" x1="4511.58" y1="722.14" x2="4672.87" y2= "880.17" />
 </g>
</svg>
